<?xml version="1.0" encoding="UTF-8"?>
<!-- Created with Inkscape (http://www.inkscape.org/) -->

<svg
   width="320mm"
   height="120mm"
   version="1.1"
   viewBox="0 0 320.00001 120"
   id="svg28"
   sodipodi:docname="kessel.svg"
   inkscape:version="1.2.2 (b0a8486541, 2022-12-01)"
   xmlns:inkscape="http://www.inkscape.org/namespaces/inkscape"
   xmlns:sodipodi="http://sodipodi.sourceforge.net/DTD/sodipodi-0.dtd"
   xmlns="http://www.w3.org/2000/svg"
   xmlns:svg="http://www.w3.org/2000/svg">
  <defs
     id="defs32" />
  <sodipodi:namedview
     id="namedview30"
     pagecolor="#ffffff"
     bordercolor="#666666"
     borderopacity="1.0"
     inkscape:showpageshadow="2"
     inkscape:pageopacity="0.0"
     inkscape:pagecheckerboard="0"
     inkscape:deskcolor="#d1d1d1"
     inkscape:document-units="mm"
     showgrid="false"
     inkscape:zoom="0.15273326"
     inkscape:cx="-1820.1667"
     inkscape:cy="792.23085"
     inkscape:window-width="3440"
     inkscape:window-height="1371"
     inkscape:window-x="0"
     inkscape:window-y="32"
     inkscape:window-maximized="1"
     inkscape:current-layer="g26" />
  <g
     transform="translate(-543.398,-59.642)"
     id="g26">
    <g
       id="g2" />
    <g
       stroke-width="0.26458"
       aria-label="kessel"
       id="g16"
       transform="translate(17.830958,27.42598)">
      <path
         d="m 555.48,118.84 0.37466,-17.796 23.509,-22.292 h 17.421 l -22.573,22.947 -7.5867,6.1818 z m -12.082,10.303 V 59.645 h 14.611 v 69.498 z m 37.559,0 -17.047,-21.168 9.179,-11.333 25.57,32.501 z"
         id="path4" />
      <path
         d="m 628.06,129.89 q -8.617,0 -15.173,-3.3719 -6.4627,-3.3719 -10.022,-9.179 -3.5592,-5.9008 -3.5592,-13.394 0,-7.5867 3.4655,-13.394 3.5592,-5.9008 9.6473,-9.179 6.0881,-3.3719 13.768,-3.3719 7.3994,0 13.3,3.1845 5.9944,3.0909 9.46,8.9916 3.4655,5.8071 3.4655,13.956 0,0.84297 -0.0937,1.9669 -0.0937,1.0303 -0.18733,1.9669 h -40.931 v -8.5233 h 33.25 l -5.6198,2.5289 q 0,-3.9338 -1.5923,-6.8374 -1.5923,-2.9035 -4.4022,-4.4958 -2.8099,-1.6859 -6.5564,-1.6859 -3.7465,0 -6.6501,1.6859 -2.8099,1.5923 -4.4022,4.5895 -1.5923,2.9035 -1.5923,6.931 v 2.2479 q 0,4.1212 1.7796,7.3057 1.8733,3.0909 5.1515,4.7768 3.3719,1.5923 7.8677,1.5923 4.0275,0 7.0247,-1.2176 3.0909,-1.2176 5.6198,-3.6528 l 7.774,8.4296 q -3.4655,3.9338 -8.7106,6.0881 -5.2451,2.0606 -12.082,2.0606 z"
         id="path6" />
      <path
         d="m 679.1,129.89 q -6.4627,0 -12.457,-1.4986 -5.9008,-1.5923 -9.3663,-3.9338 l 4.8705,-10.49 q 3.4655,2.1542 8.1487,3.5592 4.7768,1.3113 9.3663,1.3113 5.0578,0 7.1184,-1.2176 2.1542,-1.2176 2.1542,-3.3719 0,-1.7796 -1.6859,-2.6226 -1.5923,-0.93663 -4.3085,-1.4049 -2.7162,-0.46832 -5.9944,-0.93663 -3.1845,-0.46832 -6.4627,-1.2176 -3.2782,-0.84296 -5.9944,-2.4352 -2.7162,-1.59224 -4.4022,-4.3085 -1.5923,-2.7162 -1.5923,-7.0247 0,-4.7768 2.7162,-8.4297 2.8099,-3.6528 8.055,-5.7134 5.2451,-2.1542 12.551,-2.1542 5.1514,0 10.49,1.124 5.3388,1.124 8.898,3.2782 l -4.8705,10.397 q -3.6528,-2.1542 -7.3994,-2.9035 -3.6528,-0.84296 -7.1184,-0.84296 -4.8705,0 -7.1184,1.3113 -2.2479,1.3113 -2.2479,3.3719 0,1.8733 1.5923,2.8099 1.6859,0.93663 4.4022,1.4986 2.7163,0.56197 5.9008,1.0303 3.2782,0.37465 6.5564,1.2176 3.2782,0.84296 5.9008,2.4352 2.7162,1.4986 4.4022,4.2148 1.6859,2.6226 1.6859,6.931 0,4.6831 -2.8099,8.336 -2.8099,3.5592 -8.1487,5.6198 -5.2451,2.0606 -12.832,2.0606 z"
         id="path8" />
      <path
         d="m 728.84,129.89 q -6.4627,0 -12.457,-1.4986 -5.9008,-1.5923 -9.3663,-3.9338 l 4.8705,-10.49 q 3.4655,2.1542 8.1487,3.5592 4.7768,1.3113 9.3663,1.3113 5.0578,0 7.1184,-1.2176 2.1542,-1.2176 2.1542,-3.3719 0,-1.7796 -1.6859,-2.6226 -1.5923,-0.93663 -4.3085,-1.4049 -2.7162,-0.46832 -5.9944,-0.93663 -3.1845,-0.46832 -6.4627,-1.2176 -3.2782,-0.84296 -5.9944,-2.4352 -2.7162,-1.59224 -4.4022,-4.3085 -1.5923,-2.7162 -1.5923,-7.0247 0,-4.7768 2.7162,-8.4297 2.8099,-3.6528 8.055,-5.7134 5.2451,-2.1542 12.551,-2.1542 5.1514,0 10.49,1.124 5.3388,1.124 8.898,3.2782 l -4.8705,10.397 q -3.6528,-2.1542 -7.3994,-2.9035 -3.6528,-0.84296 -7.1184,-0.84296 -4.8705,0 -7.1184,1.3113 -2.2479,1.3113 -2.2479,3.3719 0,1.8733 1.5923,2.8099 1.6859,0.93663 4.4022,1.4986 2.7162,0.56198 5.9008,1.0303 3.2782,0.37465 6.5564,1.2176 3.2782,0.84296 5.9008,2.4352 2.7162,1.4986 4.4022,4.2148 1.6859,2.6226 1.6859,6.931 0,4.6831 -2.8099,8.336 -2.8099,3.5592 -8.1487,5.6198 -5.2451,2.0606 -12.832,2.0606 z"
         id="path10" />
      <path
         d="m 786.63,129.89 q -8.617,0 -15.173,-3.3719 -6.4627,-3.3719 -10.022,-9.179 -3.5592,-5.9008 -3.5592,-13.394 0,-7.5867 3.4655,-13.394 3.5592,-5.9008 9.6473,-9.179 6.0881,-3.3719 13.768,-3.3719 7.3994,0 13.3,3.1845 5.9944,3.0909 9.46,8.9916 3.4655,5.8071 3.4655,13.956 0,0.84297 -0.0937,1.9669 -0.0937,1.0303 -0.18733,1.9669 h -40.931 v -8.5233 h 33.25 l -5.6198,2.5289 q 0,-3.9338 -1.5923,-6.8374 -1.5923,-2.9035 -4.4022,-4.4958 -2.8099,-1.6859 -6.5564,-1.6859 -3.7465,0 -6.6501,1.6859 -2.8099,1.5923 -4.4022,4.5895 -1.5923,2.9035 -1.5923,6.931 v 2.2479 q 0,4.1212 1.7796,7.3057 1.8733,3.0909 5.1515,4.7768 3.3719,1.5923 7.8677,1.5923 4.0275,0 7.0247,-1.2176 3.0909,-1.2176 5.6198,-3.6528 l 7.774,8.4296 q -3.4655,3.9338 -8.7106,6.0881 -5.2451,2.0606 -12.082,2.0606 z"
         id="path12" />
      <path
         d="M 820.72,129.14 V 59.642 h 14.611 v 69.498 z"
         id="path14" />
    </g>
  </g>
</svg>
