<?xml version="1.0" encoding="UTF-8"?>
<!-- Created with Inkscape (http://www.inkscape.org/) -->
<svg width="415.56mm" height="110.85mm" version="1.1" viewBox="0 0 415.56 110.85" xmlns="http://www.w3.org/2000/svg"><g transform="translate(-419.77 -40.256)"><g></g><g stroke-width=".26458" aria-label="kessel"><path d="m555.48 118.84 0.37466-17.796 23.509-22.292h17.421l-22.573 22.947-7.5867 6.1818zm-12.082 10.303v-69.498h14.611v69.498zm37.559 0-17.047-21.168 9.179-11.333 25.57 32.501z"/><path d="m628.06 129.89q-8.617 0-15.173-3.3719-6.4627-3.3719-10.022-9.179-3.5592-5.9008-3.5592-13.394 0-7.5867 3.4655-13.394 3.5592-5.9008 9.6473-9.179 6.0881-3.3719 13.768-3.3719 7.3994 0 13.3 3.1845 5.9944 3.0909 9.46 8.9916 3.4655 5.8071 3.4655 13.956 0 0.84297-0.0937 1.9669-0.0937 1.0303-0.18733 1.9669h-40.931v-8.5233h33.25l-5.6198 2.5289q0-3.9338-1.5923-6.8374-1.5923-2.9035-4.4022-4.4958-2.8099-1.6859-6.5564-1.6859t-6.6501 1.6859q-2.8099 1.5923-4.4022 4.5895-1.5923 2.9035-1.5923 6.931v2.2479q0 4.1212 1.7796 7.3057 1.8733 3.0909 5.1515 4.7768 3.3719 1.5923 7.8677 1.5923 4.0275 0 7.0247-1.2176 3.0909-1.2176 5.6198-3.6528l7.774 8.4296q-3.4655 3.9338-8.7106 6.0881-5.2451 2.0606-12.082 2.0606z"/><path d="m679.1 129.89q-6.4627 0-12.457-1.4986-5.9008-1.5923-9.3663-3.9338l4.8705-10.49q3.4655 2.1542 8.1487 3.5592 4.7768 1.3113 9.3663 1.3113 5.0578 0 7.1184-1.2176 2.1542-1.2176 2.1542-3.3719 0-1.7796-1.6859-2.6226-1.5923-0.93663-4.3085-1.4049-2.7162-0.46832-5.9944-0.93663-3.1845-0.46832-6.4627-1.2176-3.2782-0.84296-5.9944-2.4352t-4.4022-4.3085q-1.5923-2.7162-1.5923-7.0247 0-4.7768 2.7162-8.4297 2.8099-3.6528 8.055-5.7134 5.2451-2.1542 12.551-2.1542 5.1514 0 10.49 1.124 5.3388 1.124 8.898 3.2782l-4.8705 10.397q-3.6528-2.1542-7.3994-2.9035-3.6528-0.84296-7.1184-0.84296-4.8705 0-7.1184 1.3113-2.2479 1.3113-2.2479 3.3719 0 1.8733 1.5923 2.8099 1.6859 0.93663 4.4022 1.4986t5.9008 1.0303q3.2782 0.37465 6.5564 1.2176 3.2782 0.84296 5.9008 2.4352 2.7162 1.4986 4.4022 4.2148 1.6859 2.6226 1.6859 6.931 0 4.6831-2.8099 8.336-2.8099 3.5592-8.1487 5.6198-5.2451 2.0606-12.832 2.0606z"/><path d="m728.84 129.89q-6.4627 0-12.457-1.4986-5.9008-1.5923-9.3663-3.9338l4.8705-10.49q3.4655 2.1542 8.1487 3.5592 4.7768 1.3113 9.3663 1.3113 5.0578 0 7.1184-1.2176 2.1542-1.2176 2.1542-3.3719 0-1.7796-1.6859-2.6226-1.5923-0.93663-4.3085-1.4049-2.7162-0.46832-5.9944-0.93663-3.1845-0.46832-6.4627-1.2176-3.2782-0.84296-5.9944-2.4352t-4.4022-4.3085q-1.5923-2.7162-1.5923-7.0247 0-4.7768 2.7162-8.4297 2.8099-3.6528 8.055-5.7134 5.2451-2.1542 12.551-2.1542 5.1514 0 10.49 1.124 5.3388 1.124 8.898 3.2782l-4.8705 10.397q-3.6528-2.1542-7.3994-2.9035-3.6528-0.84296-7.1184-0.84296-4.8705 0-7.1184 1.3113-2.2479 1.3113-2.2479 3.3719 0 1.8733 1.5923 2.8099 1.6859 0.93663 4.4022 1.4986 2.7162 0.56198 5.9008 1.0303 3.2782 0.37465 6.5564 1.2176 3.2782 0.84296 5.9008 2.4352 2.7162 1.4986 4.4022 4.2148 1.6859 2.6226 1.6859 6.931 0 4.6831-2.8099 8.336-2.8099 3.5592-8.1487 5.6198-5.2451 2.0606-12.832 2.0606z"/><path d="m786.63 129.89q-8.617 0-15.173-3.3719-6.4627-3.3719-10.022-9.179-3.5592-5.9008-3.5592-13.394 0-7.5867 3.4655-13.394 3.5592-5.9008 9.6473-9.179 6.0881-3.3719 13.768-3.3719 7.3994 0 13.3 3.1845 5.9944 3.0909 9.46 8.9916 3.4655 5.8071 3.4655 13.956 0 0.84297-0.0937 1.9669-0.0937 1.0303-0.18733 1.9669h-40.931v-8.5233h33.25l-5.6198 2.5289q0-3.9338-1.5923-6.8374-1.5923-2.9035-4.4022-4.4958-2.8099-1.6859-6.5564-1.6859t-6.6501 1.6859q-2.8099 1.5923-4.4022 4.5895-1.5923 2.9035-1.5923 6.931v2.2479q0 4.1212 1.7796 7.3057 1.8733 3.0909 5.1515 4.7768 3.3719 1.5923 7.8677 1.5923 4.0275 0 7.0247-1.2176 3.0909-1.2176 5.6198-3.6528l7.774 8.4296q-3.4655 3.9338-8.7106 6.0881-5.2451 2.0606-12.082 2.0606z"/><path d="m820.72 129.14v-69.498h14.611v69.498z"/></g><ellipse cx="472.14" cy="116.62" rx="27.738" ry="27.766" fill="#2e3436"/><ellipse cx="486.56" cy="74.823" rx="3.2832" ry="3.2865" stroke="#000" stroke-linecap="round" stroke-linejoin="round" stroke-width="5.5786"/><path d="m479.69 75.582s-96.322 3.8497-39.958 74.099" fill="none" stroke="#babdb6" stroke-width="4.5454"/><ellipse cx="446.68" cy="52.751" rx="12.483" ry="12.495" fill="#888a85"/></g></svg>
